<?xml version="1.0" encoding="utf-8"?>
<!-- Designed by Vexels.com - 2020 All Rights Reserved - https://vexels.com/terms-and-conditions/  -->
<svg version="1.1" id="Capa_1" xmlns="http://www.w3.org/2000/svg" xmlns:xlink="http://www.w3.org/1999/xlink" x="0px" y="0px"
	 viewBox="0 0 1200 1200" enable-background="new 0 0 1200 1200" xml:space="preserve">
<g>
	<path fill="#84CAE8" d="M782.159,808.781c-23.844,36.94-53.302,94.373-70.446,131.061c-4.477,9.583-13.326,16.389-23.738,18.249
		c-1.909,0.346-3.828,0.514-5.731,0.514c-8.483,0-16.723-3.324-22.862-9.395c-179.4-177.289-388.869-156.505-436.59-148.946
		c-0.421,3.794-0.375,8.109,0.456,12.915c3.685,21.28,25.563,65.507,130.729,122.615c95.92,52.085,179.713,63.1,210.277,58.025
		c-12.121-13.112-47.299-41.548-146.479-83.688c-14.925-6.339-21.888-23.582-15.544-38.507
		c6.338-14.926,23.571-21.878,38.506-15.544c163.387,69.412,185.475,112.832,187.876,139.454
		c1.598,17.72-6.474,33.799-22.151,44.107c-14.034,9.227-34.973,13.615-60.375,13.62c-59.22,0-142.772-23.843-220.137-65.858
		c-98.431-53.448-152.609-109.639-161.023-167.02c-7.035-47.981,20.389-77.177,23.539-80.349c0.201-0.202,0.442-0.336,0.647-0.532
		l80.6-100.078c-37.295-2.587-75.762-2.901-114.84-0.212c-12.187,36.068-18.892,74.66-18.892,114.841
		c0,198.093,160.587,358.68,358.679,358.68c161.794,0,298.52-107.146,343.211-254.337
		C814.917,842.232,796.082,824.106,782.159,808.781z"/>
	<path fill="#84CAE8" d="M316.315,442.906c-31.164,17.902-59.381,40.319-83.751,66.408c27.66,0.328,65.085,2.21,108.249,8.188
		C329.869,493.97,321.721,468.806,316.315,442.906z"/>
	<path fill="#84CAE8" d="M292.867,610.678l53.241-66.107c-44.537-6.163-91.249-8.463-138.954-5.003
		c-15.32,20.504-28.408,42.749-39.115,66.308C203.783,605.092,246.343,606.054,292.867,610.678z"/>
	<path fill="#FFFFFF" d="M861.983,274.174c3.518-1.25,7.094-2.388,10.715-3.422C869.075,271.787,865.501,272.924,861.983,274.174z"
		/>
	<path fill="#FFFFFF" d="M928.333,264.869c30.275,5.431,62.018,20.261,92.883,44.504
		C994.316,282.705,962.938,267.622,928.333,264.869z"/>
	<path fill="#FFFFFF" d="M876.529,269.748c2.816-0.735,5.654-1.406,8.52-1.998C882.182,268.342,879.346,269.013,876.529,269.748z"/>
	<path fill="#FFFFFF" d="M838.165,284.622c2.715-1.425,5.493-2.778,8.312-4.083C843.656,281.845,840.881,283.197,838.165,284.622z"
		/>
	<path fill="#FFFFFF" d="M916.701,264.375c3.782,0,7.522,0.164,11.233,0.449C924.224,264.54,920.483,264.375,916.701,264.375z"/>
	<path fill="#FFFFFF" d="M889.406,266.909c2.902-0.518,5.83-0.937,8.771-1.297C895.235,265.973,892.31,266.391,889.406,266.909z"/>
	<path fill="#FFFFFF" d="M827.363,290.781c2.455-1.51,4.966-2.975,7.532-4.389C832.325,287.808,829.82,289.271,827.363,290.781z"/>
	<path fill="#FFFFFF" d="M902.148,265.127c4.244-0.409,8.511-0.692,12.805-0.742C910.659,264.435,906.393,264.718,902.148,265.127z"
		/>
	<path fill="#FFFFFF" d="M849.247,279.24c3.787-1.677,7.649-3.256,11.596-4.688C856.895,275.984,853.036,277.563,849.247,279.24z"/>
	<path fill="#FFFFFF" d="M1020.43,823.122c-1.376,0.762-2.768,1.502-4.206,2.183C1017.664,824.624,1019.055,823.885,1020.43,823.122
		z"/>
	<path fill="#FFFFFF" d="M1027.323,818.814c-1.268,0.892-2.561,1.759-3.891,2.579
		C1024.764,820.572,1026.053,819.707,1027.323,818.814z"/>
	<path fill="#FFFFFF" d="M1033.647,813.864c-1.162,1.011-2.351,1.993-3.575,2.938
		C1031.296,815.856,1032.485,814.877,1033.647,813.864z"/>
	<path fill="#FFFFFF" d="M893.375,816.583c-2.168-1.199-4.304-2.432-6.405-3.7C889.072,814.152,891.205,815.384,893.375,816.583z"/>
	<path fill="#FFFFFF" d="M884.579,811.432c-2.351-1.464-4.658-2.966-6.919-4.5C879.922,808.466,882.225,809.967,884.579,811.432z"/>
	<path fill="#FFFFFF" d="M859.041,792.881c-1.827-1.522-3.616-3.049-5.357-4.58C855.425,789.833,857.211,791.357,859.041,792.881z"
		/>
	<path fill="#FFFFFF" d="M867.938,799.978c-2.45-1.855-4.824-3.739-7.143-5.635C863.114,796.241,865.488,798.122,867.938,799.978z"
		/>
	<path fill="#FFFFFF" d="M876.353,806.062c-2.777-1.912-5.488-3.865-8.12-5.854C870.865,802.197,873.576,804.148,876.353,806.062z"
		/>
	<path fill="#FFFFFF" d="M816.048,298.31c2.728-1.98,5.553-3.904,8.464-5.769C821.599,294.407,818.778,296.33,816.048,298.31z"/>
	<path fill="#FFFFFF" d="M1021.253,309.41c3.092,3.068,6.109,6.328,9.082,9.7C1027.362,315.738,1024.345,312.477,1021.253,309.41z"
		/>
	<path fill="#FFFFFF" d="M1056.69,781.908c-0.579,1.323-1.211,2.622-1.847,3.92C1055.479,784.529,1056.11,783.233,1056.69,781.908z"
		/>
	<path fill="#FFFFFF" d="M1044.569,802.334c-0.93,1.19-1.9,2.349-2.892,3.489C1042.669,804.682,1043.638,803.526,1044.569,802.334z"
		/>
	<path fill="#FFFFFF" d="M1049.181,795.873c-0.816,1.256-1.673,2.481-2.549,3.695
		C1047.508,798.353,1048.365,797.131,1049.181,795.873z"/>
	<path fill="#FFFFFF" d="M1059.587,774.531c-0.464,1.331-0.985,2.643-1.505,3.956C1058.6,777.172,1059.122,775.864,1059.587,774.531
		z"/>
	<path fill="#FFFFFF" d="M1033.101,322.379c2.059,2.433,4.095,4.927,6.092,7.508
		C1037.196,327.305,1035.161,324.812,1033.101,322.379z"/>
	<path fill="#FFFFFF" d="M1061.915,766.967c-0.352,1.317-0.765,2.619-1.167,3.924
		C1061.151,769.584,1061.563,768.284,1061.915,766.967z"/>
	<path fill="#FFFFFF" d="M1039.392,808.351c-1.048,1.11-2.129,2.189-3.239,3.241
		C1037.265,810.539,1038.344,809.463,1039.392,808.351z"/>
	<path fill="#FFFFFF" d="M895.08,817.515c32.242,17.398,71.632,26.467,115.009,10.459c1.597-0.59,3.089-1.324,4.618-2.008
		C971.591,834.357,930.463,828.629,895.08,817.515z"/>
	<path fill="#FFFFFF" d="M1053.215,789.052c-0.697,1.298-1.441,2.569-2.195,3.833
		C1051.774,791.619,1052.519,790.351,1053.215,789.052z"/>
	<path fill="#FFFFFF" d="M1065.448,743.842c-0.046,1.156-0.165,2.32-0.251,3.481
		C1065.282,746.161,1065.402,744.998,1065.448,743.842z"/>
	<path fill="#FFFFFF" d="M1065.463,736.205c0.04,1.054,0.002,2.124,0.009,3.187C1065.465,738.329,1065.503,737.259,1065.463,736.205
		z"/>
	<path fill="#FFFFFF" d="M1064.894,728.725c0.098,0.83,0.124,1.684,0.2,2.523C1065.018,730.409,1064.992,729.556,1064.894,728.725z"
		/>
	<path fill="#FFFFFF" d="M1063.671,759.287c-0.245,1.289-0.556,2.571-0.849,3.855
		C1063.115,761.857,1063.426,760.577,1063.671,759.287z"/>
	<path fill="#FFFFFF" d="M1050.531,345.791c2.682,4.105,5.319,8.318,7.867,12.721
		C1055.85,354.108,1053.213,349.896,1050.531,345.791z"/>
	<path fill="#FFFFFF" d="M1042.175,333.826c1.969,2.659,3.901,5.405,5.806,8.211
		C1046.076,339.231,1044.145,336.485,1042.175,333.826z"/>
	<path fill="#FFFFFF" d="M1064.849,751.563c-0.141,1.231-0.354,2.462-0.538,3.693
		C1064.495,754.025,1064.708,752.795,1064.849,751.563z"/>
	<path fill="#FFFFFF" d="M418.38,558.087c-0.646,1.015-1.268,2.042-2.037,2.995l-48.381,60.071
		c92.164,16.64,192.838,49.568,284.441,111.349c16.057-25.567,25.728-50.211,31.788-66.797
		C645.114,642.336,545.046,587.833,418.38,558.087z"/>
	<path fill="#FFFFFF" d="M846.737,781.974c1.659,1.564,3.36,3.13,5.114,4.701C850.098,785.105,848.395,783.536,846.737,781.974z"/>
	<path fill="#FFFFFF" d="M813.253,300.78c0.594-0.623,1.22-1.185,1.823-1.789c-16.324,12.019-29.158,25.906-36.65,39.567
		c-8.094,14.753-26.114,20.887-41.538,14.165c-15.424-6.736-23.162-24.126-17.841-40.096c0.157-0.498,20.038-63.635-11.796-108.418
		c-23.366-32.866-70.287-50.303-139.464-51.834c-94.813-2.212-141.829,47.981-164.944,90.347
		c-44.274,81.151-37.774,201.417,15.125,279.752c2.209,3.272,3.691,6.847,4.585,10.527
		c85.805,20.767,181.351,59.074,262.958,129.084c0.029-0.079,0.065-0.174,0.093-0.253
		C685.605,661.834,942.904,626.732,813.253,300.78z M584.633,313.269c-94.149,113.945-59.279,230.73-59.279,230.73
		C425.783,355.453,584.633,313.269,584.633,313.269z M681.649,611.988c66.461-34.813,94.944-102.857,94.944-102.857
		C768.681,615.153,681.649,611.988,681.649,611.988z"/>
	<path fill="#FFFFFF" d="M833.716,768.909c3.548,3.798,7.439,7.755,11.653,11.781C841.157,776.668,837.264,772.704,833.716,768.909z
		"/>
	<path fill="#FFFFFF" d="M648.276,738.854c-56.705-26.07-167.912-70.604-301.899-90.899l-66.535,82.612
		c3.203-0.053,6.473-0.084,9.829-0.084c72.38,0,179.427,13.597,289.046,76.081c-0.001-0.001-0.003-0.002-0.003-0.002
		C609.569,788.06,631.912,763.361,648.276,738.854z"/>
	<path fill="#FFFFFF" d="M815.642,747.657c-0.842-1.095-1.617-2.117-2.311-3.05C814.028,745.543,814.798,746.559,815.642,747.657z"
		/>
	<path fill="#FFFFFF" d="M810.653,740.934c-0.36-0.506-0.681-0.962-0.946-1.342C809.977,739.981,810.282,740.412,810.653,740.934z"
		/>
	<path fill="#FFFFFF" d="M650.676,855c-0.916-0.718-1.829-1.458-2.745-2.168C648.847,853.542,649.76,854.283,650.676,855z"/>
	<path fill="#FFFFFF" d="M603.067,821.271c-0.81-0.516-1.621-1.015-2.432-1.525C601.446,820.257,602.256,820.755,603.067,821.271z"
		/>
	<path fill="#FFFFFF" d="M812.648,743.682c-0.508-0.69-0.984-1.34-1.398-1.914C811.667,742.348,812.133,742.984,812.648,743.682z"/>
	<path fill="#FFFFFF" d="M627.225,837.521c-1.083-0.767-2.166-1.534-3.249-2.29C625.059,835.988,626.142,836.755,627.225,837.521z"
		/>
	<path fill="#FFFFFF" d="M809.377,739.119c-0.301-0.437-0.551-0.805-0.671-0.982C808.828,738.318,809.066,738.668,809.377,739.119z"
		/>
	<path fill="#FFFFFF" d="M832.794,767.907c-1.406-1.518-2.763-3.01-4.055-4.463C830.034,764.898,831.387,766.386,832.794,767.907z"
		/>
	<path fill="#FFFFFF" d="M823.079,756.897c-1.152-1.374-2.24-2.695-3.262-3.958C820.839,754.204,821.924,755.521,823.079,756.897z"
		/>
	<path fill="#FFFFFF" d="M827.46,761.993c-1.157-1.317-2.268-2.602-3.323-3.848C825.195,759.394,826.3,760.672,827.46,761.993z"/>
	<path fill="#FFFFFF" d="M819.275,752.276c-1.195-1.485-2.299-2.887-3.301-4.184C816.977,749.39,818.077,750.787,819.275,752.276z"
		/>
	<path fill="#1E120D" d="M1069.738,625.09c63.887-64.018,118.636-171.927,44.966-299.177
		c-47.803-82.566-119.328-127.517-200.499-126.578c-47.394,0.551-91.107,16.373-125.923,39.1
		c-3.366-23.377-11.387-48.316-27.614-71.352C724.831,116.182,660.42,89.35,569.224,87.336
		c-99.186-2.06-178.581,41.931-223.489,124.23c-36.569,67.025-45.861,152.563-29.42,231.34c5.406,25.9,13.554,51.064,24.497,74.595
		c-43.164-5.978-80.589-7.859-108.249-8.188c-19.681-0.233-34.485,0.305-42.632,0.749c-4.569,0.249-8.789,2.492-11.526,6.159
		c-7.925,10.62,0.419,25.809,13.606,24.512c5.064-0.498,10.097-0.801,15.143-1.167c47.705-3.46,94.417-1.16,138.954,5.003
		l-53.241,66.107c-46.524-4.624-89.084-5.585-124.828-4.803c-49.813,1.09-86.464,5.464-102.235,7.687
		c-5.382,0.759-10.149,3.842-13.016,8.461c-8.3,13.376,3.118,30.506,18.595,27.63c27.998-5.202,55.887-8.541,83.49-10.441
		c39.078-2.689,77.545-2.375,114.84,0.212l-80.6,100.078c-0.205,0.195-0.446,0.329-0.647,0.532
		c-3.151,3.172-30.575,32.368-23.539,80.349c8.414,57.381,62.592,113.571,161.023,167.02
		c77.365,42.015,160.917,65.858,220.137,65.858c25.401-0.005,46.341-4.393,60.375-13.62c15.676-10.307,23.749-26.386,22.151-44.107
		c-2.401-26.622-24.489-70.042-187.876-139.454c-14.935-6.333-32.169,0.618-38.506,15.544c-6.344,14.925,0.618,32.169,15.544,38.507
		c99.18,42.14,134.359,70.576,146.479,83.688c-30.564,5.075-114.357-5.94-210.277-58.025
		C248.81,878.686,226.932,834.46,223.247,813.18c-0.831-4.807-0.877-9.121-0.456-12.915c47.721-7.559,257.19-28.343,436.59,148.946
		c6.139,6.071,14.38,9.395,22.862,9.395c1.903,0,3.823-0.168,5.731-0.514c10.412-1.861,19.261-8.666,23.738-18.249
		c17.143-36.688,46.602-94.121,70.446-131.061c13.923,15.325,32.759,33.451,55.713,49.615
		c48.672,34.272,115.943,59.687,194.738,30.614c76.726-28.316,108.485-114.064,94.855-180.609
		C1119.701,670.475,1099.133,641.704,1069.738,625.09z M1033.647,813.864c-1.162,1.012-2.351,1.992-3.575,2.938
		c-0.898,0.692-1.818,1.356-2.749,2.012c-1.27,0.893-2.558,1.758-3.891,2.579c-0.981,0.603-1.988,1.168-3.001,1.729
		c-1.376,0.763-2.767,1.502-4.206,2.183c-0.397,0.189-0.762,0.423-1.164,0.605c-0.118,0.023-0.235,0.033-0.355,0.056
		c-1.529,0.684-3.021,1.419-4.618,2.008c-43.377,16.008-82.766,6.939-115.009-10.459c-0.06-0.019-0.124-0.034-0.183-0.053
		c-0.519-0.28-1.007-0.594-1.521-0.879c-2.17-1.2-4.303-2.432-6.405-3.7c-0.8-0.483-1.602-0.96-2.391-1.452
		c-2.353-1.465-4.657-2.966-6.919-4.5c-0.432-0.293-0.877-0.575-1.306-0.87c-2.778-1.913-5.488-3.865-8.12-5.854
		c-0.101-0.076-0.195-0.154-0.295-0.23c-2.45-1.856-4.824-3.737-7.143-5.635c-0.596-0.487-1.169-0.974-1.754-1.463
		c-1.829-1.523-3.615-3.048-5.357-4.58c-0.617-0.543-1.227-1.082-1.834-1.625c-1.753-1.572-3.455-3.137-5.114-4.701
		c-0.455-0.429-0.92-0.856-1.367-1.283c-4.214-4.026-8.105-7.984-11.653-11.781c-0.317-0.34-0.61-0.665-0.922-1.003
		c-1.407-1.521-2.76-3.009-4.055-4.463c-0.437-0.492-0.856-0.968-1.279-1.451c-1.16-1.32-2.266-2.599-3.323-3.848
		c-0.356-0.419-0.714-0.838-1.058-1.248c-1.154-1.376-2.24-2.694-3.262-3.958c-0.177-0.218-0.37-0.449-0.543-0.664
		c-1.198-1.489-2.298-2.885-3.301-4.184c-0.12-0.155-0.215-0.283-0.332-0.435c-0.844-1.099-1.615-2.114-2.311-3.05
		c-0.247-0.333-0.456-0.615-0.684-0.925c-0.514-0.698-0.981-1.335-1.398-1.914c-0.217-0.302-0.407-0.565-0.597-0.833
		c-0.371-0.522-0.676-0.953-0.946-1.342c-0.117-0.168-0.232-0.331-0.33-0.473c-0.311-0.451-0.549-0.801-0.671-0.982
		c-5.362-8.116-14.081-13.405-23.76-14.412c-2.426-0.245-4.845-0.219-7.218,0.065c-4.744,0.568-9.301,2.166-13.351,4.685
		c-2.026,1.26-3.922,2.749-5.654,4.456c-27.508,27.157-64.218,95.217-86.582,139.617c-7.129-6.122-14.291-11.927-21.466-17.547
		c-0.916-0.717-1.829-1.458-2.745-2.168c-6.888-5.332-13.793-10.418-20.706-15.311c-1.083-0.767-2.166-1.534-3.249-2.29
		c-6.966-4.86-13.938-9.524-20.909-13.96c-0.81-0.516-1.621-1.015-2.432-1.525c-7.311-4.602-14.621-9.022-21.918-13.182
		c-109.619-62.484-216.666-76.081-289.046-76.081c-3.356,0-6.626,0.031-9.829,0.084l66.535-82.612
		c133.988,20.295,245.194,64.829,301.899,90.899c26.051,11.976,40.621,20.045,40.621,20.045
		c-11.953-9.394-24.164-18.081-36.493-26.396c-91.604-61.781-192.278-94.71-284.441-111.349l48.381-60.071
		c0.768-0.954,1.391-1.98,2.037-2.995c126.666,29.746,226.735,84.249,265.812,107.619c11.553,6.91,17.843,11.124,17.843,11.124
		c-5.432-5.077-10.952-9.966-16.523-14.744c-81.607-70.01-177.153-108.317-262.958-129.084c-0.894-3.68-2.376-7.255-4.585-10.527
		c-52.899-78.335-59.399-198.601-15.125-279.752c23.115-42.366,70.131-92.559,164.944-90.347
		c69.176,1.531,116.098,18.968,139.464,51.834c31.834,44.783,11.954,107.92,11.796,108.418
		c-5.321,15.969,2.417,33.359,17.841,40.096c15.424,6.721,33.443,0.588,41.538-14.165c7.492-13.661,20.326-27.549,36.65-39.567
		c0.02-0.02,0.039-0.039,0.059-0.058c0.293-0.215,0.618-0.409,0.914-0.623c2.73-1.981,5.551-3.903,8.464-5.769
		c0.936-0.599,1.897-1.174,2.85-1.76c2.458-1.511,4.963-2.973,7.532-4.389c1.085-0.598,2.167-1.19,3.27-1.77
		c2.716-1.425,5.491-2.778,8.312-4.083c0.928-0.43,1.83-0.884,2.77-1.299c3.789-1.677,7.647-3.256,11.596-4.688
		c0.374-0.136,0.765-0.244,1.14-0.378c3.518-1.25,7.092-2.388,10.715-3.422c1.268-0.362,2.551-0.671,3.831-1.005
		c2.817-0.735,5.653-1.406,8.52-1.998c1.45-0.299,2.897-0.58,4.357-0.841c2.904-0.518,5.829-0.937,8.771-1.297
		c1.325-0.162,2.639-0.358,3.971-0.486c4.245-0.409,8.511-0.692,12.805-0.742c0.583-0.005,1.165-0.01,1.747-0.01
		c3.782,0,7.523,0.164,11.233,0.449c0.079,0.006,0.162,0.003,0.242,0.01c0.052,0.009,0.105,0.025,0.157,0.034
		c34.604,2.754,65.983,17.837,92.883,44.504c0.002,0.001,0.002,0.002,0.004,0.002c0.011,0.011,0.022,0.024,0.033,0.035
		c3.092,3.067,6.109,6.328,9.082,9.7c0.935,1.06,1.845,2.179,2.767,3.269c2.059,2.433,4.095,4.927,6.092,7.508
		c1.001,1.295,1.995,2.607,2.982,3.939c1.969,2.659,3.901,5.406,5.806,8.211c0.851,1.252,1.712,2.473,2.55,3.754
		c2.682,4.105,5.319,8.318,7.867,12.721c87.054,150.359-71.321,251.201-78.031,255.374c-4.748,2.92-8.528,6.906-11.167,11.497
		c-1.758,3.061-3.009,6.39-3.701,9.851c-0.346,1.73-0.552,3.493-0.613,5.273c-0.119,3.558,0.345,7.18,1.446,10.728
		c0.55,1.774,1.242,3.473,2.06,5.085c0.818,1.613,1.762,3.141,2.818,4.572c6.335,8.589,16.683,13.726,27.831,13.195
		c19.677-1.035,33.623,3.526,43.478,10.898c12.671,9.479,18.58,23.606,21.216,36.47c0.486,2.378,0.868,4.807,1.159,7.271
		c0.098,0.831,0.124,1.684,0.2,2.523c0.148,1.645,0.308,3.285,0.369,4.957c0.04,1.054,0.002,2.124,0.009,3.187
		c0.006,1.482,0.035,2.956-0.024,4.45c-0.046,1.156-0.166,2.319-0.251,3.481c-0.103,1.413-0.187,2.823-0.348,4.241
		c-0.141,1.232-0.354,2.461-0.538,3.693c-0.202,1.345-0.386,2.688-0.64,4.03c-0.244,1.29-0.556,2.57-0.849,3.855
		c-0.291,1.278-0.567,2.555-0.907,3.825c-0.352,1.318-0.764,2.618-1.167,3.924c-0.375,1.217-0.74,2.435-1.161,3.64
		c-0.464,1.333-0.986,2.641-1.505,3.956c-0.453,1.146-0.898,2.291-1.392,3.421c-0.579,1.325-1.211,2.621-1.847,3.92
		c-0.531,1.082-1.058,2.162-1.628,3.224c-0.697,1.299-1.441,2.567-2.195,3.833c-0.6,1.006-1.202,2.006-1.839,2.988
		c-0.816,1.258-1.673,2.48-2.549,3.695c-0.674,0.934-1.355,1.859-2.064,2.766c-0.931,1.191-1.9,2.347-2.892,3.489
		c-0.746,0.857-1.504,1.701-2.285,2.528c-1.048,1.112-2.128,2.188-3.239,3.241C1035.335,812.368,1034.499,813.123,1033.647,813.864z
		"/>
	<path fill="#C8E7F4" d="M1041.677,805.823c0.992-1.14,1.962-2.299,2.892-3.489c0.708-0.908,1.39-1.832,2.064-2.766
		c0.876-1.214,1.733-2.439,2.549-3.695c0.637-0.982,1.239-1.982,1.839-2.988c0.754-1.264,1.498-2.535,2.195-3.833
		c0.57-1.062,1.097-2.142,1.628-3.224c0.636-1.298,1.267-2.597,1.847-3.92c0.494-1.13,0.94-2.275,1.392-3.421
		c0.52-1.313,1.041-2.625,1.505-3.956c0.421-1.205,0.786-2.423,1.161-3.64c0.402-1.305,0.816-2.607,1.167-3.924
		c0.34-1.27,0.616-2.547,0.907-3.825c0.293-1.284,0.603-2.566,0.849-3.855c0.254-1.343,0.438-2.685,0.64-4.03
		c0.184-1.232,0.397-2.462,0.538-3.693c0.162-1.418,0.245-2.828,0.348-4.241c0.086-1.161,0.205-2.325,0.251-3.481
		c0.059-1.494,0.03-2.969,0.024-4.45c-0.006-1.062,0.031-2.133-0.009-3.187c-0.061-1.672-0.221-3.312-0.369-4.957
		c-0.076-0.839-0.102-1.693-0.2-2.523c-0.291-2.464-0.673-4.893-1.159-7.271c-2.637-12.863-8.546-26.991-21.216-36.47
		c-9.855-7.372-23.801-11.932-43.478-10.898c-11.147,0.531-21.495-4.606-27.831-13.195c-1.056-1.431-2-2.959-2.818-4.572
		c-0.818-1.613-1.51-3.311-2.06-5.085c-1.101-3.548-1.566-7.17-1.446-10.728c0.061-1.779,0.267-3.543,0.613-5.273
		c0.692-3.461,1.943-6.79,3.701-9.851c2.639-4.591,6.419-8.577,11.167-11.497c6.71-4.173,165.085-105.015,78.031-255.374
		c-2.549-4.404-5.185-8.616-7.867-12.721c-0.838-1.28-1.699-2.502-2.55-3.754c-1.905-2.806-3.837-5.553-5.806-8.211
		c-0.986-1.331-1.98-2.644-2.982-3.939c-1.998-2.581-4.033-5.075-6.092-7.508c-0.922-1.09-1.832-2.209-2.767-3.269
		c-2.973-3.372-5.989-6.632-9.082-9.7c-0.011-0.011-0.022-0.024-0.033-0.035c-0.002-0.001-0.002-0.002-0.004-0.002
		c-30.864-24.243-62.608-39.073-92.883-44.504c-0.052-0.009-0.105-0.025-0.157-0.034c-0.08-0.007-0.163-0.004-0.242-0.01
		c-3.711-0.285-7.451-0.449-11.233-0.449c-0.582,0-1.164,0.005-1.747,0.01c-4.294,0.049-8.562,0.333-12.805,0.742
		c-1.332,0.128-2.646,0.323-3.971,0.486c-2.941,0.36-5.869,0.779-8.771,1.297c-1.46,0.261-2.908,0.542-4.357,0.841
		c-2.866,0.592-5.704,1.263-8.52,1.998c-1.28,0.334-2.563,0.643-3.831,1.005c-3.621,1.034-7.197,2.172-10.715,3.422
		c-0.375,0.134-0.766,0.241-1.14,0.378c-3.946,1.433-7.809,3.011-11.596,4.688c-0.94,0.416-1.842,0.87-2.77,1.299
		c-2.819,1.305-5.598,2.658-8.312,4.083c-1.103,0.58-2.185,1.172-3.27,1.77c-2.566,1.414-5.077,2.879-7.532,4.389
		c-0.954,0.586-1.914,1.16-2.85,1.76c-2.911,1.865-5.736,3.789-8.464,5.769c-0.295,0.214-0.621,0.408-0.914,0.623
		c-0.02,0.02-0.039,0.039-0.059,0.058c-0.603,0.604-1.229,1.166-1.823,1.789c129.651,325.952-127.648,361.053-127.648,361.053
		c-0.028,0.079-0.064,0.174-0.093,0.253c5.57,4.778,11.091,9.666,16.523,14.744c0,0-6.29-4.214-17.843-11.124
		c-6.06,16.586-15.731,41.23-31.788,66.797c12.329,8.314,24.541,17.002,36.493,26.396c0,0-14.57-8.069-40.621-20.045
		c-16.364,24.507-38.707,49.206-69.563,67.708c0,0.001,0.002,0.002,0.003,0.002c7.298,4.16,14.608,8.581,21.918,13.182
		c0.811,0.51,1.621,1.009,2.432,1.525c6.971,4.437,13.944,9.1,20.909,13.96c1.083,0.756,2.166,1.523,3.249,2.29
		c6.914,4.893,13.819,9.979,20.706,15.311c0.916,0.71,1.829,1.45,2.745,2.168c7.175,5.621,14.337,11.426,21.466,17.547
		c22.364-44.4,59.074-112.46,86.582-139.617c1.732-1.707,3.628-3.196,5.654-4.456c4.05-2.519,8.607-4.117,13.351-4.685
		c2.373-0.284,4.791-0.31,7.218-0.065c9.678,1.007,18.398,6.296,23.76,14.412c0.119,0.178,0.37,0.546,0.671,0.982
		c0.098,0.142,0.213,0.305,0.33,0.473c0.265,0.38,0.586,0.836,0.946,1.342c0.19,0.268,0.38,0.532,0.597,0.833
		c0.413,0.575,0.89,1.225,1.398,1.914c0.228,0.31,0.436,0.592,0.684,0.925c0.694,0.933,1.469,1.955,2.311,3.05
		c0.117,0.152,0.212,0.279,0.332,0.435c1.001,1.297,2.106,2.699,3.301,4.184c0.173,0.215,0.366,0.446,0.543,0.664
		c1.022,1.263,2.109,2.583,3.262,3.958c0.344,0.41,0.702,0.828,1.058,1.248c1.056,1.246,2.167,2.531,3.323,3.848
		c0.423,0.483,0.842,0.959,1.279,1.451c1.292,1.453,2.649,2.945,4.055,4.463c0.312,0.337,0.605,0.662,0.922,1.003
		c3.548,3.795,7.441,7.758,11.653,11.781c0.447,0.427,0.912,0.854,1.367,1.283c1.658,1.562,3.361,3.131,5.114,4.701
		c0.607,0.544,1.216,1.082,1.834,1.625c1.74,1.531,3.53,3.058,5.357,4.58c0.586,0.488,1.159,0.976,1.754,1.463
		c2.319,1.896,4.693,3.78,7.143,5.635c0.1,0.076,0.194,0.154,0.295,0.23c2.632,1.988,5.344,3.941,8.12,5.854
		c0.43,0.295,0.875,0.577,1.306,0.87c2.261,1.534,4.568,3.036,6.919,4.5c0.79,0.492,1.592,0.969,2.391,1.452
		c2.101,1.268,4.237,2.501,6.405,3.7c0.514,0.285,1.003,0.598,1.521,0.879c0.06,0.019,0.124,0.034,0.183,0.053
		c35.383,11.113,76.511,16.842,119.626,8.451c0.119-0.023,0.237-0.033,0.355-0.056c0.403-0.182,0.767-0.416,1.164-0.605
		c1.438-0.681,2.83-1.421,4.206-2.183c1.013-0.561,2.02-1.126,3.001-1.729c1.33-0.82,2.622-1.687,3.891-2.579
		c0.931-0.655,1.851-1.319,2.749-2.012c1.224-0.945,2.413-1.926,3.575-2.938c0.852-0.742,1.688-1.496,2.506-2.272
		c1.11-1.052,2.191-2.131,3.239-3.241C1040.173,807.524,1040.931,806.68,1041.677,805.823z"/>
	<path fill="#1E120D" d="M776.594,509.131c0,0-28.484,68.044-94.944,102.857C681.649,611.988,768.681,615.153,776.594,509.131z"/>
	<path fill="#1E120D" d="M584.633,313.269c0,0-158.851,42.184-59.279,230.73C525.355,543.999,490.484,427.214,584.633,313.269z"/>
</g>
</svg>
