<?xml version="1.0" standalone="no"?>
<!DOCTYPE svg PUBLIC "-//W3C//DTD SVG 20010904//EN"
 "http://www.w3.org/TR/2001/REC-SVG-20010904/DTD/svg10.dtd">
<svg version="1.0" xmlns="http://www.w3.org/2000/svg"
 width="626.000000pt" height="626.000000pt" viewBox="0 0 626.000000 626.000000"
 preserveAspectRatio="xMidYMid meet">

<g transform="translate(0.000000,626.000000) scale(0.100000,-0.100000)"
fill="#000000" stroke="none">
<path d="M2859 4796 c-108 -29 -216 -126 -274 -248 -19 -40 -35 -79 -35 -86 0
-10 -7 -12 -22 -7 -13 4 -61 9 -108 12 -71 4 -94 1 -142 -17 -107 -40 -190
-138 -223 -265 -44 -172 9 -342 151 -474 l73 -68 -35 -106 c-19 -59 -34 -120
-34 -136 0 -26 4 -31 35 -37 19 -3 35 -9 35 -12 0 -4 -9 -96 -21 -207 -11
-110 -24 -288 -27 -395 -6 -170 -9 -195 -23 -192 -9 1 -46 -36 -93 -98 -131
-167 -196 -212 -310 -213 -111 -1 -198 70 -267 218 -115 245 -115 551 1 880
81 228 160 335 247 335 77 0 108 -72 91 -213 -9 -78 -4 -219 8 -252 4 -9 36
-30 72 -46 52 -25 73 -30 105 -25 55 9 96 33 107 62 16 41 13 428 -4 468 -40
95 -233 166 -453 166 -121 0 -180 -25 -269 -114 -114 -115 -205 -320 -261
-585 -23 -113 -26 -149 -27 -346 -1 -204 1 -225 22 -295 47 -149 126 -274 238
-379 92 -87 172 -123 280 -129 156 -8 293 58 447 216 l77 80 0 -58 c0 -71 20
-141 55 -186 32 -42 61 -55 97 -42 32 11 50 57 67 168 17 109 108 372 118 342
3 -7 -2 -53 -12 -102 -24 -135 -3 -226 67 -285 60 -51 151 -25 257 74 18 17
36 31 40 31 4 0 18 -11 30 -24 13 -13 46 -34 74 -46 98 -43 207 -15 304 76 21
20 51 46 67 57 26 19 29 19 23 3 -9 -23 -15 -71 -22 -175 -3 -47 -7 -86 -8
-86 -1 -1 -150 -43 -331 -94 -294 -83 -331 -91 -357 -80 -46 18 -113 6 -364
-66 -126 -37 -252 -73 -280 -80 -223 -60 -235 -67 -235 -130 0 -65 43 -135 84
-135 26 0 721 196 769 217 21 9 49 30 61 46 21 26 51 37 322 113 164 47 308
87 320 90 20 5 21 1 27 -98 14 -225 80 -338 198 -338 40 0 52 5 79 31 75 76
150 311 150 473 l0 61 68 18 67 18 34 -38 c169 -190 218 -237 269 -261 86 -39
161 -29 487 63 355 100 333 92 352 128 27 54 13 260 -30 427 -74 286 -183 490
-260 490 -50 0 -622 -171 -681 -203 -107 -59 -138 -118 -171 -327 -28 -179
-25 -173 -94 -191 l-60 -16 -25 73 -24 72 38 6 c49 8 60 35 31 72 -12 15 -21
41 -21 59 0 69 -38 87 -143 70 l-40 -7 7 78 c7 79 32 243 42 277 5 17 7 17 38
-2 17 -11 37 -17 43 -13 7 4 26 48 43 97 18 50 35 94 40 98 4 5 25 -3 47 -17
113 -75 272 -88 354 -31 114 80 145 245 74 391 l-26 53 24 38 c122 194 92 485
-67 647 -63 65 -160 114 -245 122 -38 4 -61 11 -61 19 0 7 -16 44 -35 82 -42
85 -122 163 -202 200 -66 30 -176 42 -237 24 -36 -9 -41 -8 -54 12 -32 48
-141 144 -198 174 -111 59 -240 78 -345 49z m267 -90 c75 -34 117 -69 169
-138 l44 -59 -49 -61 c-42 -52 -139 -218 -127 -218 2 0 18 22 36 49 41 64 111
125 186 164 48 24 76 31 140 35 103 6 164 -18 230 -89 39 -42 95 -140 95 -167
0 -4 -24 -19 -53 -35 -28 -15 -63 -36 -77 -46 -24 -19 -23 -19 55 0 141 34
235 19 347 -52 122 -78 187 -242 166 -416 -12 -104 -68 -203 -93 -163 -3 5
-20 19 -37 32 -34 24 -33 21 25 -66 115 -172 123 -343 18 -413 -66 -44 -203
-23 -299 47 -35 25 -40 33 -40 71 -1 64 -41 113 -157 191 -55 36 -104 73 -109
81 -16 25 18 62 86 96 34 17 79 34 100 37 57 10 46 24 -17 24 -40 0 -82 -10
-148 -36 -115 -44 -197 -53 -287 -30 -141 36 -237 103 -288 201 -23 44 -27 62
-27 150 0 55 3 116 7 135 l7 35 -19 -35 c-11 -19 -31 -73 -46 -120 -51 -166
-85 -197 -206 -187 -86 7 -167 43 -199 88 -22 31 -24 44 -24 143 l0 108 -22
-49 c-26 -57 -43 -136 -43 -199 0 -40 -3 -44 -27 -49 -16 -4 -47 -11 -69 -16
-33 -9 -47 -8 -71 5 -164 84 -230 305 -144 480 33 68 67 104 126 135 52 27
144 28 202 2 37 -17 43 -25 58 -77 18 -61 58 -149 74 -158 5 -3 2 13 -6 37
-36 104 -26 240 24 341 49 98 163 189 269 215 60 15 159 5 220 -23z m-424
-1031 c279 -44 596 -157 867 -309 196 -111 236 -169 195 -288 l-15 -46 -72 42
c-70 41 -172 87 -152 68 6 -5 46 -36 90 -69 107 -81 118 -94 110 -132 -9 -40
-18 -45 -46 -22 -57 44 -296 180 -424 242 -178 85 -351 147 -535 193 -137 34
-340 66 -416 66 -41 0 -42 6 -10 91 l24 64 48 7 c27 3 96 7 154 8 117 2 98 14
-40 25 -132 11 -142 13 -130 35 6 11 23 27 38 35 32 19 152 15 314 -10z m-12
-371 c202 -47 415 -126 629 -233 113 -57 121 -63 121 -90 0 -16 6 -40 13 -54
9 -18 11 -48 5 -113 -4 -49 -10 -136 -14 -194 -7 -116 0 -103 -111 -214 -100
-102 -187 -124 -248 -63 -20 20 -36 48 -40 70 -12 60 -5 66 72 65 102 -2 163
40 218 150 69 137 43 310 -59 400 -57 50 -149 54 -257 12 -27 -11 -58 -20 -69
-20 -13 0 -24 -15 -39 -54 -53 -143 -74 -290 -69 -504 2 -150 2 -153 -22 -183
-50 -61 -90 -6 -90 123 0 141 16 244 50 316 36 77 37 108 8 152 -22 33 -25 34
-93 34 -43 1 -82 -5 -100 -14 -27 -14 -31 -22 -37 -75 -8 -64 -60 -227 -114
-358 l-33 -82 -1 125 c0 69 5 186 10 260 15 200 62 549 77 573 6 10 57 3 193
-29z m496 -359 c38 -92 -13 -351 -76 -385 -17 -9 -26 -8 -47 5 -23 16 -25 20
-18 72 8 68 59 280 76 316 17 38 47 35 65 -8z m1558 -218 c23 -36 -4 -49 -270
-124 -142 -40 -270 -72 -284 -71 -28 3 -39 38 -18 56 15 12 538 162 552 158 5
-1 14 -10 20 -19z m46 -162 c32 -38 10 -48 -276 -129 -217 -61 -279 -75 -290
-65 -17 14 -18 45 -2 55 18 11 509 152 534 153 12 0 27 -6 34 -14z m44 -161
c18 -18 19 -24 7 -42 -8 -14 -509 -162 -547 -162 -12 0 -27 7 -34 14 -28 35 2
49 277 128 147 42 271 77 275 77 4 1 14 -6 22 -15z m-1171 -175 c21 -78 19
-113 -8 -118 -28 -5 -35 -19 -35 -75 0 -45 1 -48 23 -42 69 19 64 21 70 -31
10 -93 -35 -314 -71 -347 -17 -15 -20 -15 -32 -1 -25 30 -34 195 -22 408 12
207 24 281 45 274 7 -2 20 -33 30 -68z m1222 -14 l0 -30 -275 -78 c-187 -53
-280 -75 -290 -69 -8 5 -15 20 -15 33 0 28 -8 26 305 114 124 35 236 63 250
62 21 -2 25 -7 25 -32z m43 -137 c17 -17 15 -46 -5 -57 -34 -17 -527 -152
-547 -149 -16 2 -21 10 -21 32 l0 30 270 77 c149 42 275 78 281 78 5 1 15 -4
22 -11z"/>
</g>
</svg>
